<?xml version="1.0" encoding="utf-8"?>
<!DOCTYPE svg PUBLIC "-//W3C//DTD SVG 1.1//EN" "http://www.w3.org/Graphics/SVG/1.1/DTD/svg11.dtd">
<svg version="1.1" id="图形" xmlns="http://www.w3.org/2000/svg" xmlns:xlink="http://www.w3.org/1999/xlink" x="0px" y="0px" width="1024px" height="1024px" viewBox="0 0 1024 1024" enable-background="new 0 0 1024 1024" xml:space="preserve">
  <path fill="#ffffff" d="M656.952657 362.329581l-58.966342 0-78.88479 0L257.285069 362.329581l-84.061909 0-58.965319 0c-12.924887 0-23.587151-10.695596-23.587151-23.860431l0-385.595079c0-13.063527 10.662264-23.7581 23.587151-23.7581l542.694815 0c12.959681 0 23.620921 10.694573 23.620921 23.7581L680.573579 338.46915C680.573579 351.633984 669.912338 362.329581 656.952657 362.329581zM603.094869 476.759773c0-0.206708 0.103358-0.411369 0.103358-0.617054 0.512697 71.579245 59.171012 129.787972 130.821755 129.787972 71.582178 0 130.240493-58.208726 130.821755-129.787972 0 0.205685 0.03377 0.410346 0.03377 0.617054l0-114.430192 78.919584 0L943.795091 476.759773l-0.102335 0c-0.857566 117.515461-95.513174 212.543767-212.279242 212.543767-116.732298 0-211.352089-95.028307-212.278219-212.543767l-0.034794 0 0-114.430192 83.993344 0L603.093845 476.759773z" transform="translate(0, 812) scale(1, -1)"/>
</svg>
