<?xml version="1.0" encoding="utf-8"?>
<!DOCTYPE svg PUBLIC "-//W3C//DTD SVG 1.1//EN" "http://www.w3.org/Graphics/SVG/1.1/DTD/svg11.dtd">
<svg version="1.1" id="图形" xmlns="http://www.w3.org/2000/svg" xmlns:xlink="http://www.w3.org/1999/xlink" x="0px" y="0px" width="1024px" height="1024px" viewBox="0 0 1024 1024" enable-background="new 0 0 1024 1024" xml:space="preserve">
  <path fill="#ffffff" d="M350.15 377.765v169.047c0 56.68 46.114 102.794 102.794 102.794l115.65-0c56.68 0 102.794-46.113 102.794-102.794v-169.047h86.186v169.047c0 104.203-84.776 188.98-188.98 188.98l-115.65 0c-104.203 0-188.98-84.776-188.98-188.98v-169.047l86.186-0zM816.738-159.441h-612.648c-41.106 0-74.548 33.442-74.548 74.547v388.597c0 41.106 33.442 74.547 74.548 74.547h612.649c41.106 0 74.548-33.442 74.548-74.547v-388.597c-0.001-41.106-33.443-74.547-74.549-74.547zM222.848-66.134h575.129l-0 351.077h-575.129l0-351.077z" transform="translate(0, 812) scale(1, -1)"/>
</svg>
